<svg xmlns="http://www.w3.org/2000/svg" fill="none" viewBox="0 0 128 128">
   <rect width="128" height="128" />
<path d="M41.937 91.592L37.585 89.672L64.977 33.192L69.265 35.304L41.937 91.592ZM75.288 85V49.8H81.048V56.52H82.264L81.048 57.864C81.048 55.0907 81.88 52.9573 83.544 51.464C85.208 49.928 87.512 49.16 90.456 49.16C93.9973 49.16 96.8133 50.248 98.904 52.424C100.995 54.6 102.04 57.5653 102.04 61.32V85H96.28V61.96C96.28 59.4427 95.5973 57.5227 94.232 56.2C92.9093 54.8347 91.096 54.152 88.792 54.152C86.4027 54.152 84.504 54.8773 83.096 56.328C81.7307 57.7787 81.048 59.8693 81.048 62.6V85H75.288Z"/>
<path d="M25.0245 91.592L20.6725 89.672L48.0645 33.192L52.3525 35.304L25.0245 91.592Z"/>
  <style>
        path { fill: #22C55E; }
        rect { fill: #18181B; }
        @media (prefers-color-scheme: dark) {
            path { fill: #22C55E; }
            rect { fill: #18181B; }
        }
    </style>
</svg>
